# xmcd
#
# Track frame offsets:
#	150
#	12274
#	24645
#	37674
#	51561
#	63841
#	78462
#	89997
#	103055
#	118548
#	131022
#	144132
#	155759
#	170003
#	183492
#	196760
#	209512
#	224027
#	236487
#	249618
#	263716
#	277254
#	291665
#	304994
#	318798
#	332213
#	345858
#
# Disc length: 4795 seconds
#
# Revision: 0
# Processed by: cddbd v1.5.1PL2 Copyright (c) Steve Scherf et al.
# Submitted via: EasyCDDAExtractor 9.1.3.1
#
DISCID=a212b91b
DTITLE=Various Artist - Guitar Evangelists, Vol.2 - Disc A
DYEAR=2006
DGENRE=Blues
TTITLE0=Blind Joe Taggart - I Will Not Be Removed
TTITLE1=Blind Joe Taggart - Everybody's Got To Be Tried
TTITLE2=Blind Joe Taggart - I'll Be Satisfied
TTITLE3=Blind Joe Taggart - Take Your Burden To The Lord
TTITLE4=Blind Joe Taggart - I Wish My Mother Was On That Train
TTITLE5=Blind Joe Taggart - Just Beyond Jordan
TTITLE6=Blind Joe Taggart - Keep On The Firing Line
TTITLE7=Blind Joe Taggart - The Half Ain't Never Been Told
TTITLE8=Blind Joe Amos - C&O Blues
TTITLE9=Blind Joe Taggart - The Storm Is Passing Over
TTITLE10=Blind Joe Taggart - God's Gonna Separate The Wheat From The Tares
TTITLE11=Blind Joe Taggart - Been Listening All The Day
TTITLE12=Blind Joe Taggart - Goin' Rest Where Jesus Is
TTITLE13=Blind Joe Taggart - There's A Hand Writing On The Wall
TTITLE14=Blind Joe Taggart - Scandalous And A Shame
TTITLE15=Blind Joe Taggart - I've Crossed The Separation Line
TTITLE16=Blind Joe Taggart - Lord Don't Drive Me Away
TTITLE17=Blind Joe Taggart - Religion Is Something Within You
TTITLE18=Blind Joe Taggart - Mother's Love
TTITLE19=Blind Joe Taggart - Wonder Will My Troubles Then Be Over
TTITLE20=Blind Joe Taggart - Strange Things Happening In The Land
TTITLE21=Blind Joe Taggart - Waded In The Water Trying To Get Home
TTITLE22=Blind Joe Taggart - He Done What The World Couldn't Do
TTITLE23=Blind Joe Taggart - Satan Your Kingdom Must Come Down
TTITLE24=Blind Joe Taggart - I Ain't No Sinner Now
TTITLE25=Blind Joe Taggart - Pressin' Up That Shiny Way
TTITLE26=Blind Joe Taggart - In That Pearly White City Above
EXTD=
EXTT0=
EXTT1=
EXTT2=
EXTT3=
EXTT4=
EXTT5=
EXTT6=
EXTT7=
EXTT8=
EXTT9=
EXTT10=
EXTT11=
EXTT12=
EXTT13=
EXTT14=
EXTT15=
EXTT16=
EXTT17=
EXTT18=
EXTT19=
EXTT20=
EXTT21=
EXTT22=
EXTT23=
EXTT24=
EXTT25=
EXTT26=
PLAYORDER=
